<?xml version="1.0" encoding="UTF-8" standalone="no"?>
<!DOCTYPE svg PUBLIC "-//W3C//DTD SVG 1.1//EN" "http://www.w3.org/Graphics/SVG/1.1/DTD/svg11.dtd">
<svg width="100%" height="100%" viewBox="0 0 220 30" version="1.1" xmlns="http://www.w3.org/2000/svg" xmlns:xlink="http://www.w3.org/1999/xlink" xml:space="preserve" xmlns:serif="http://www.serif.com/" style="fill-rule:evenodd;clip-rule:evenodd;stroke-linejoin:round;stroke-miterlimit:1.41421;">
    <g transform="matrix(1,0,0,1,0,-35)">
        <path d="M63.6,49.3C65.788,50.376 67.13,52.665 67,55.1C67,60 64,64 58.2,64L44.9,64L44.9,35.8L57,35.8C57.033,35.8 57.067,35.799 57.1,35.799C61.873,35.799 65.8,39.727 65.8,44.499C65.8,44.5 65.8,44.5 65.8,44.5C65.755,46.333 64.959,48.069 63.6,49.3ZM51.9,42.3L51.9,46.9L56.5,46.9C59.4,46.9 59.4,42.3 56.5,42.3L51.9,42.3ZM51.9,52.9L51.9,57.7L57.7,57.7C60.6,57.7 60.6,52.9 57.7,52.9L51.9,52.9Z" style="fill-rule:nonzero;"/>
    </g>
    <g transform="matrix(1,0,0,1,0,-35)">
        <path d="M86.5,55.7C86.5,53.7 84.2,53.3 81.3,53.1C75.2,52.7 71.1,50.6 71.1,44.4C70.9,32.2 92.8,32.2 92.6,44.4L85.8,44.4C85.8,40.7 78.2,41 78,44.3C77.8,47.6 79.9,46.9 82.5,47.2C88.1,47.8 93.6,48.7 93.6,55.7C93.6,67.6 70.6,67.8 70.8,55.3L77.8,55.3C77.7,59 86.5,59 86.5,55.7Z" style="fill-rule:nonzero;"/>
    </g>
    <g transform="matrix(1,0,0,1,0,-35)">
        <path d="M96.7,50C96.7,30.5 125.6,30.5 125.6,50C125.6,69.5 96.7,69.5 96.7,50ZM118.3,50C118.3,39.8 104.1,39.8 104.1,50C104.1,60.2 118.2,60.2 118.2,50L118.3,50Z" style="fill-rule:nonzero;"/>
    </g>
    <g transform="matrix(1,0,0,1,0,-35)">
        <path d="M137.1,57.5L147.3,57.5L147.3,64L129.8,64L129.8,35.8L137.1,35.8L137.1,57.5Z" style="fill-rule:nonzero;"/>
    </g>
    <g transform="matrix(1,0,0,1,0,-35)">
        <path d="M165.8,54.5L165.8,35.8L172.7,35.8L172.7,54.6C172.7,60.8 167.3,64.4 161.5,64.4C155.7,64.4 150.3,60.8 150.3,54.6L150.3,35.8L157.2,35.8L157.2,54.5C157.2,56.8 159.4,57.9 161.5,57.9C163.6,57.9 165.8,56.8 165.8,54.5Z" style="fill-rule:nonzero;"/>
    </g>
    <g transform="matrix(1,0,0,1,0,-35)">
        <path d="M176.3,42.3L176.3,35.8L197.3,35.8L197.3,42.3L190.4,42.3L190.4,64L183.3,64L183.3,42.3L176.3,42.3Z" style="fill-rule:nonzero;"/>
    </g>
    <g transform="matrix(1,0,0,1,0,-35)">
        <path d="M218.6,42.3L208.2,42.3L208.2,46.3L217.8,46.3L217.8,52.7L208.2,52.7L208.2,57.7L219,57.7L219,64L201,64L201,35.8L218.6,35.8L218.6,42.3Z" style="fill-rule:nonzero;"/>
    </g>
    <g transform="matrix(1,0,0,1,0,-35)">
        <path d="M29.9,35.8L26.9,35.8L13.9,64L21.3,64L28.4,47.1L35.5,64L43,64L29.9,35.8Z" style="fill-rule:nonzero;"/>
    </g>
    <g transform="matrix(1,0,0,1,0,-35)">
        <path d="M1,64L14,35.8L20.9,35.8L7.9,64L1,64Z" style="fill:rgb(120,190,32);fill-rule:nonzero;"/>
    </g>
</svg>
